{
  "accessors": [
    {
      "bufferView": 2,
      "componentType": 5126,
      "count": 3748,
      "max": [
        0.5984470248222351,
        1.2170158624649048,
        0.9981913566589355
      ],
      "min": [
        -5.3482866287231445,
        -1.2170159816741943,
        -0.5947746634483337
      ],
      "type": "VEC3"
    },
    {
      "bufferView": 2,
      "byteOffset": 44976,
      "componentType": 5126,
      "count": 3748,
      "max": [
        1.0,
        0.9911575317382813,
        0.9994125366210938
      ],
      "min": [
        -1.0,
        -0.9911575317382813,
        -0.9941906332969666
      ],
      "type": "VEC3"
    },
    {
      "bufferView": 1,
      "componentType": 5126,
      "count": 3748,
      "max": [
        0.8750001192092896,
        1.000000238418579
      ],
      "min": [
        0.12499994784593582,
        -0.00032907683635130525
      ],
      "type": "VEC2"
    },
    {
      "bufferView": 0,
      "componentType": 5125,
      "count": 14640,
      "type": "SCALAR"
    },
    {
      "bufferView": 2,
      "byteOffset": 89952,
      "componentType": 5126,
      "count": 5671,
      "max": [
        1.8341704607009888,
        0.8274886012077332,
        1.0968807935714722
      ],
      "min": [
        -2.482576370239258,
        -0.8274886608123779,
        -0.7377909421920776
      ],
      "type": "VEC3"
    },
    {
      "bufferView": 2,
      "byteOffset": 158004,
      "componentType": 5126,
      "count": 5671,
      "max": [
        1.0,
        1.0,
        1.0
      ],
      "min": [
        -1.0,
        -1.0,
        -1.0
      ],
      "type": "VEC3"
    },
    {
      "bufferView": 1,
      "byteOffset": 29984,
      "componentType": 5126,
      "count": 5671,
      "max": [
        0.8750001192092896,
        1.000000238418579
      ],
      "min": [
        0.1250000149011612,
        0.0
      ],
      "type": "VEC2"
    },
    {
      "bufferView": 0,
      "byteOffset": 58560,
      "componentType": 5125,
      "count": 24648,
      "type": "SCALAR"
    },
    {
      "bufferView": 2,
      "byteOffset": 226056,
      "componentType": 5126,
      "count": 4593,
      "max": [
        1.8696269989013672,
        0.7063352465629578,
        0.9846906065940857
      ],
      "min": [
        1.4587821960449219,
        -0.7063352465629578,
        -0.6215236186981201
      ],
      "type": "VEC3"
    },
    {
      "bufferView": 2,
      "byteOffset": 281172,
      "componentType": 5126,
      "count": 4593,
      "max": [
        0.9937967658042908,
        0.9966033101081848,
        0.9998564720153809
      ],
      "min": [
        -0.9967310428619385,
        -0.9966052174568176,
        -0.9969242811203003
      ],
      "type": "VEC3"
    },
    {
      "bufferView": 1,
      "byteOffset": 75352,
      "componentType": 5126,
      "count": 4593,
      "max": [
        0.6016865968704224,
        0.7269859910011292
      ],
      "min": [
        0.39569735527038574,
        0.625
      ],
      "type": "VEC2"
    },
    {
      "bufferView": 0,
      "byteOffset": 157152,
      "componentType": 5125,
      "count": 17952,
      "type": "SCALAR"
    },
    {
      "bufferView": 2,
      "byteOffset": 336288,
      "componentType": 5126,
      "count": 5642,
      "max": [
        2.0202105045318604,
        0.6930369734764099,
        0.995125412940979
      ],
      "min": [
        1.4873946905136108,
        -0.6930369734764099,
        -0.5312517881393433
      ],
      "type": "VEC3"
    },
    {
      "bufferView": 2,
      "byteOffset": 403992,
      "componentType": 5126,
      "count": 5642,
      "max": [
        0.9955825209617615,
        0.9963451623916626,
        0.9992645978927612
      ],
      "min": [
        -0.8943341374397278,
        -0.9963400363922119,
        -0.9938721656799316
      ],
      "type": "VEC3"
    },
    {
      "bufferView": 1,
      "byteOffset": 112096,
      "componentType": 5126,
      "count": 5642,
      "max": [
        0.6016860604286194,
        0.7269862294197083
      ],
      "min": [
        0.3957009017467499,
        0.6250000596046448
      ],
      "type": "VEC2"
    },
    {
      "bufferView": 0,
      "byteOffset": 228960,
      "componentType": 5125,
      "count": 22680,
      "type": "SCALAR"
    },
    {
      "bufferView": 2,
      "byteOffset": 471696,
      "componentType": 5126,
      "count": 3335,
      "max": [
        2.143522024154663,
        0.39406687021255493,
        0.8001671433448792
      ],
      "min": [
        1.6957403421401978,
        -0.39406684041023254,
        -0.5836041569709778
      ],
      "type": "VEC3"
    },
    {
      "bufferView": 2,
      "byteOffset": 511716,
      "componentType": 5126,
      "count": 3335,
      "max": [
        1.0,
        0.9999605417251587,
        0.9977772831916809
      ],
      "min": [
        -1.0,
        -0.9999605417251587,
        -0.9993999004364014
      ],
      "type": "VEC3"
    },
    {
      "bufferView": 1,
      "byteOffset": 157232,
      "componentType": 5126,
      "count": 3335,
      "max": [
        0.6016855239868164,
        0.710159420967102
      ],
      "min": [
        0.39570164680480957,
        0.625
      ],
      "type": "VEC2"
    },
    {
      "bufferView": 0,
      "byteOffset": 319680,
      "componentType": 5125,
      "count": 14880,
      "type": "SCALAR"
    },
    {
      "bufferView": 2,
      "byteOffset": 551736,
      "componentType": 5126,
      "count": 1331,
      "max": [
        2.142460584640503,
        0.07349447906017303,
        0.7704021334648132
      ],
      "min": [
        1.8788222074508667,
        -0.07349448651075363,
        -0.5545775890350342
      ],
      "type": "VEC3"
    },
    {
      "bufferView": 2,
      "byteOffset": 567708,
      "componentType": 5126,
      "count": 1331,
      "max": [
        1.0,
        0.9999830722808838,
        0.9986799955368042
      ],
      "min": [
        -0.469257116317749,
        -0.9999830722808838,
        -0.9999747276306152
      ],
      "type": "VEC3"
    },
    {
      "bufferView": 1,
      "byteOffset": 183912,
      "componentType": 5126,
      "count": 1331,
      "max": [
        0.5955793857574463,
        0.6768510341644287
      ],
      "min": [
        0.3999956548213959,
        0.6249999403953552
      ],
      "type": "VEC2"
    },
    {
      "bufferView": 0,
      "byteOffset": 379200,
      "componentType": 5125,
      "count": 5184,
      "type": "SCALAR"
    },
    {
      "bufferView": 2,
      "byteOffset": 583680,
      "componentType": 5126,
      "count": 841,
      "max": [
        1.6907532215118408,
        0.670628547668457,
        1.2247185707092285
      ],
      "min": [
        -0.23653355240821838,
        -0.670628547668457,
        0.588167667388916
      ],
      "type": "VEC3"
    },
    {
      "bufferView": 2,
      "byteOffset": 593772,
      "componentType": 5126,
      "count": 841,
      "max": [
        0.9997632503509521,
        0.99478679895401,
        0.8156632781028748
      ],
      "min": [
        -1.0,
        -0.99478679895401,
        -1.0
      ],
      "type": "VEC3"
    },
    {
      "bufferView": 1,
      "byteOffset": 194560,
      "componentType": 5126,
      "count": 841,
      "max": [
        0.6747278571128845,
        0.712661862373352
      ],
      "min": [
        0.6249998807907104,
        0.6250000596046448
      ],
      "type": "VEC2"
    },
    {
      "bufferView": 0,
      "byteOffset": 399936,
      "componentType": 5125,
      "count": 3648,
      "type": "SCALAR"
    },
    {
      "bufferView": 2,
      "byteOffset": 603864,
      "componentType": 5126,
      "count": 205,
      "max": [
        1.1632364988327026,
        0.5947420001029968,
        1.398039698600769
      ],
      "min": [
        -0.20400689542293549,
        -0.5947420597076416,
        1.021746039390564
      ],
      "type": "VEC3"
    },
    {
      "bufferView": 2,
      "byteOffset": 606324,
      "componentType": 5126,
      "count": 205,
      "max": [
        0.5977171659469604,
        0.7569800615310669,
        0.9439039826393127
      ],
      "min": [
        -0.6432471871376038,
        -0.7569995522499084,
        0.5907697677612305
      ],
      "type": "VEC3"
    },
    {
      "bufferView": 1,
      "byteOffset": 201288,
      "componentType": 5126,
      "count": 205,
      "max": [
        0.672762393951416,
        0.7126617431640625
      ],
      "min": [
        0.6249999403953552,
        0.6291050314903259
      ],
      "type": "VEC2"
    },
    {
      "bufferView": 0,
      "byteOffset": 414528,
      "componentType": 5125,
      "count": 684,
      "type": "SCALAR"
    },
    {
      "bufferView": 2,
      "byteOffset": 608784,
      "componentType": 5126,
      "count": 1254,
      "max": [
        1.1951428651809692,
        0.6714911460876465,
        1.4193922281265259
      ],
      "min": [
        -0.23755384981632233,
        -0.6714911460876465,
        1.0147182941436768
      ],
      "type": "VEC3"
    },
    {
      "bufferView": 2,
      "byteOffset": 623832,
      "componentType": 5126,
      "count": 1254,
      "max": [
        0.9961041808128357,
        0.9947032928466797,
        0.9996213912963867
      ],
      "min": [
        -0.9998595714569092,
        -0.9947032928466797,
        -0.12308435887098312
      ],
      "type": "VEC3"
    },
    {
      "bufferView": 1,
      "byteOffset": 202928,
      "componentType": 5126,
      "count": 1254,
      "max": [
        0.6747277975082397,
        0.7126617431640625
      ],
      "min": [
        0.6249998807907104,
        0.6250000596046448
      ],
      "type": "VEC2"
    },
    {
      "bufferView": 0,
      "byteOffset": 417264,
      "componentType": 5125,
      "count": 5244,
      "type": "SCALAR"
    },
    {
      "bufferView": 2,
      "byteOffset": 638880,
      "componentType": 5126,
      "count": 15128,
      "max": [
        1.423019528388977,
        2.052898406982422,
        1.5248051881790161
      ],
      "min": [
        0.8513002991676331,
        -2.052898406982422,
        0.2091113179922104
      ],
      "type": "VEC3"
    },
    {
      "bufferView": 2,
      "byteOffset": 820416,
      "componentType": 5126,
      "count": 15128,
      "max": [
        1.0,
        0.9999998807907104,
        0.9998735189437866
      ],
      "min": [
        -1.0,
        -0.9999998807907104,
        -0.9990572929382324
      ],
      "type": "VEC3"
    },
    {
      "bufferView": 1,
      "byteOffset": 212960,
      "componentType": 5126,
      "count": 15128,
      "max": [
        0.6016855835914612,
        0.7269860506057739
      ],
      "min": [
        0.0,
        0.0
      ],
      "type": "VEC2"
    },
    {
      "bufferView": 0,
      "byteOffset": 438240,
      "componentType": 5125,
      "count": 65232,
      "type": "SCALAR"
    },
    {
      "bufferView": 2,
      "byteOffset": 1001952,
      "componentType": 5126,
      "count": 1469,
      "max": [
        1.4596116542816162,
        1.9755418300628662,
        1.4255603551864624
      ],
      "min": [
        1.3099395036697388,
        -1.9755418300628662,
        0.9993813037872314
      ],
      "type": "VEC3"
    },
    {
      "bufferView": 2,
      "byteOffset": 1019580,
      "componentType": 5126,
      "count": 1469,
      "max": [
        0.9999321699142456,
        0.9984917044639587,
        0.9976875185966492
      ],
      "min": [
        -0.9267283082008362,
        -0.9984917044639587,
        -0.9976875185966492
      ],
      "type": "VEC3"
    },
    {
      "bufferView": 1,
      "byteOffset": 333984,
      "componentType": 5126,
      "count": 1469,
      "max": [
        0.6016855239868164,
        0.7120774388313293
      ],
      "min": [
        0.601685106754303,
        0.7120769619941711
      ],
      "type": "VEC2"
    },
    {
      "bufferView": 0,
      "byteOffset": 699168,
      "componentType": 5125,
      "count": 6336,
      "type": "SCALAR"
    },
    {
      "bufferView": 2,
      "byteOffset": 1037208,
      "componentType": 5126,
      "count": 820,
      "max": [
        1.4320416450500488,
        1.8863199949264526,
        1.3599334955215454
      ],
      "min": [
        1.4223737716674805,
        -1.8863202333450317,
        1.0650081634521484
      ],
      "type": "VEC3"
    },
    {
      "bufferView": 2,
      "byteOffset": 1047048,
      "componentType": 5126,
      "count": 820,
      "max": [
        1.0,
        0.9976329803466797,
        0.9976329803466797
      ],
      "min": [
        0.06408986449241638,
        -0.9976329803466797,
        -0.9976329803466797
      ],
      "type": "VEC3"
    },
    {
      "bufferView": 1,
      "byteOffset": 345736,
      "componentType": 5126,
      "count": 820,
      "max": [
        0.9990148544311523,
        0.792462944984436
      ],
      "min": [
        0.0007860512705519795,
        0.13859423995018005
      ],
      "type": "VEC2"
    },
    {
      "bufferView": 0,
      "byteOffset": 724512,
      "componentType": 5125,
      "count": 3744,
      "type": "SCALAR"
    },
    {
      "bufferView": 2,
      "byteOffset": 1056888,
      "componentType": 5126,
      "count": 515,
      "max": [
        1.266404628753662,
        1.0291087627410889,
        1.178316593170166
      ],
      "min": [
        1.0251168012619019,
        -1.0291087627410889,
        1.0506129264831543
      ],
      "type": "VEC3"
    },
    {
      "bufferView": 2,
      "byteOffset": 1063068,
      "componentType": 5126,
      "count": 515,
      "max": [
        1.0,
        0.9670251607894897,
        0.9747568368911743
      ],
      "min": [
        -1.0,
        -0.9670401215553284,
        -0.9680057168006897
      ],
      "type": "VEC3"
    },
    {
      "bufferView": 1,
      "byteOffset": 352296,
      "componentType": 5126,
      "count": 515,
      "max": [
        0.6016854643821716,
        0.7120773792266846
      ],
      "min": [
        0.6016852855682373,
        0.7120770812034607
      ],
      "type": "VEC2"
    },
    {
      "bufferView": 0,
      "byteOffset": 739488,
      "componentType": 5125,
      "count": 2208,
      "type": "SCALAR"
    },
    {
      "bufferView": 2,
      "byteOffset": 1069248,
      "componentType": 5126,
      "count": 610,
      "max": [
        1.20768141746521,
        0.6581928133964539,
        1.0561511516571045
      ],
      "min": [
        1.083840012550354,
        -0.6581929326057434,
        0.9306946992874146
      ],
      "type": "VEC3"
    },
    {
      "bufferView": 2,
      "byteOffset": 1076568,
      "componentType": 5126,
      "count": 610,
      "max": [
        1.0,
        1.0,
        1.0
      ],
      "min": [
        -1.0,
        -1.0,
        -1.0
      ],
      "type": "VEC3"
    },
    {
      "bufferView": 1,
      "byteOffset": 356416,
      "componentType": 5126,
      "count": 610,
      "max": [
        0.6016854047775269,
        0.7269859910011292
      ],
      "min": [
        0.5744847655296326,
        0.7120771408081055
      ],
      "type": "VEC2"
    },
    {
      "bufferView": 0,
      "byteOffset": 748320,
      "componentType": 5125,
      "count": 2592,
      "type": "SCALAR"
    },
    {
      "bufferView": 2,
      "byteOffset": 1083888,
      "componentType": 5126,
      "count": 942,
      "max": [
        0.04385819658637047,
        0.04385821893811226,
        0.6000000834465027
      ],
      "min": [
        -0.04385819658637047,
        -0.04385824874043465,
        -1.9415664672851563
      ],
      "type": "VEC3"
    },
    {
      "bufferView": 2,
      "byteOffset": 1095192,
      "componentType": 5126,
      "count": 942,
      "max": [
        1.0,
        1.0,
        1.0
      ],
      "min": [
        -1.0,
        -1.0,
        -1.0
      ],
      "type": "VEC3"
    },
    {
      "bufferView": 1,
      "byteOffset": 361296,
      "componentType": 5126,
      "count": 942,
      "max": [
        1.0000001192092896,
        1.0000001192092896
      ],
      "min": [
        0.0,
        0.01608964242041111
      ],
      "type": "VEC2"
    },
    {
      "bufferView": 0,
      "byteOffset": 758688,
      "componentType": 5125,
      "count": 4224,
      "type": "SCALAR"
    },
    {
      "bufferView": 2,
      "byteOffset": 1106496,
      "componentType": 5126,
      "count": 15779,
      "max": [
        0.1061658188700676,
        2.401033401489258,
        0.42195025086402893
      ],
      "min": [
        -0.7459548115730286,
        -0.13795411586761475,
        -0.09874036908149719
      ],
      "type": "VEC3"
    },
    {
      "bufferView": 2,
      "byteOffset": 1295844,
      "componentType": 5126,
      "count": 15779,
      "max": [
        1.0,
        0.9999834299087524,
        0.9999865293502808
      ],
      "min": [
        -1.0,
        -0.9999834299087524,
        -1.0
      ],
      "type": "VEC3"
    },
    {
      "bufferView": 1,
      "byteOffset": 368832,
      "componentType": 5126,
      "count": 15779,
      "max": [
        0.8750001192092896,
        1.0014077425003052
      ],
      "min": [
        0.1249999850988388,
        -8.38026880956022e-06
      ],
      "type": "VEC2"
    },
    {
      "bufferView": 0,
      "byteOffset": 775584,
      "componentType": 5125,
      "count": 69024,
      "type": "SCALAR"
    },
    {
      "bufferView": 2,
      "byteOffset": 1485192,
      "componentType": 5126,
      "count": 7161,
      "max": [
        -0.17660363018512726,
        2.3852317333221436,
        0.2852936387062073
      ],
      "min": [
        -0.6755584478378296,
        -0.09202413260936737,
        -0.10024212300777435
      ],
      "type": "VEC3"
    },
    {
      "bufferView": 2,
      "byteOffset": 1571124,
      "componentType": 5126,
      "count": 7161,
      "max": [
        0.9991539716720581,
        1.0,
        0.8514817357063293
      ],
      "min": [
        -0.9997293949127197,
        -1.0,
        -0.9999983310699463
      ],
      "type": "VEC3"
    },
    {
      "bufferView": 1,
      "byteOffset": 495064,
      "componentType": 5126,
      "count": 7161,
      "max": [
        0.1250000298023224,
        0.7004689574241638
      ],
      "min": [
        0.12499997019767761,
        0.5495312213897705
      ],
      "type": "VEC2"
    },
    {
      "bufferView": 0,
      "byteOffset": 1051680,
      "componentType": 5125,
      "count": 29952,
      "type": "SCALAR"
    },
    {
      "bufferView": 2,
      "byteOffset": 1657056,
      "componentType": 5126,
      "count": 4787,
      "max": [
        -0.1797470599412918,
        2.3982484340667725,
        0.28221702575683594
      ],
      "min": [
        -0.6730479598045349,
        -0.08931608498096466,
        -0.11094686388969421
      ],
      "type": "VEC3"
    },
    {
      "bufferView": 2,
      "byteOffset": 1714500,
      "componentType": 5126,
      "count": 4787,
      "max": [
        0.999147891998291,
        1.0,
        0.8514594435691833
      ],
      "min": [
        -0.9998136758804321,
        -1.0,
        -0.9999727010726929
      ],
      "type": "VEC3"
    },
    {
      "bufferView": 1,
      "byteOffset": 552352,
      "componentType": 5126,
      "count": 4787,
      "max": [
        0.12500004470348358,
        0.6975617408752441
      ],
      "min": [
        0.12499997019767761,
        0.5524383783340454
      ],
      "type": "VEC2"
    },
    {
      "bufferView": 0,
      "byteOffset": 1171488,
      "componentType": 5125,
      "count": 20736,
      "type": "SCALAR"
    },
    {
      "bufferView": 2,
      "byteOffset": 1771944,
      "componentType": 5126,
      "count": 1977,
      "max": [
        -0.06895697116851807,
        2.6623904705047607,
        0.042924292385578156
      ],
      "min": [
        -0.22489723563194275,
        -0.03035878948867321,
        -0.6242255568504333
      ],
      "type": "VEC3"
    },
    {
      "bufferView": 2,
      "byteOffset": 1795668,
      "componentType": 5126,
      "count": 1977,
      "max": [
        1.0,
        1.0,
        1.0
      ],
      "min": [
        -1.0,
        -1.0,
        -1.0
      ],
      "type": "VEC3"
    },
    {
      "bufferView": 1,
      "byteOffset": 590648,
      "componentType": 5126,
      "count": 1977,
      "max": [
        1.0000001192092896,
        1.0000001192092896
      ],
      "min": [
        0.0,
        0.01608964242041111
      ],
      "type": "VEC2"
    },
    {
      "bufferView": 0,
      "byteOffset": 1254432,
      "componentType": 5125,
      "count": 8832,
      "type": "SCALAR"
    },
    {
      "bufferView": 2,
      "byteOffset": 1819392,
      "componentType": 5126,
      "count": 3353,
      "max": [
        0.07834462821483612,
        2.6618094444274902,
        0.15708695352077484
      ],
      "min": [
        -0.5933017730712891,
        -0.12500007450580597,
        -0.17028547823429108
      ],
      "type": "VEC3"
    },
    {
      "bufferView": 2,
      "byteOffset": 1859628,
      "componentType": 5126,
      "count": 3353,
      "max": [
        1.0,
        1.0,
        1.0
      ],
      "min": [
        -1.0,
        -1.0,
        -1.0
      ],
      "type": "VEC3"
    },
    {
      "bufferView": 1,
      "byteOffset": 606464,
      "componentType": 5126,
      "count": 3353,
      "max": [
        0.8750002980232239,
        1.0000001192092896
      ],
      "min": [
        0.1250000149011612,
        0.0
      ],
      "type": "VEC2"
    },
    {
      "bufferView": 0,
      "byteOffset": 1289760,
      "componentType": 5125,
      "count": 14148,
      "type": "SCALAR"
    },
    {
      "bufferView": 2,
      "byteOffset": 1899864,
      "componentType": 5126,
      "count": 1587,
      "max": [
        0.1419856697320938,
        2.630260944366455,
        0.19352635741233826
      ],
      "min": [
        -0.4726285934448242,
        -0.09345187246799469,
        -0.09793131798505783
      ],
      "type": "VEC3"
    },
    {
      "bufferView": 2,
      "byteOffset": 1918908,
      "componentType": 5126,
      "count": 1587,
      "max": [
        0.9903160333633423,
        0.9999679327011108,
        0.999599814414978
      ],
      "min": [
        -0.09546561539173126,
        -0.9999679327011108,
        -0.21787282824516296
      ],
      "type": "VEC3"
    },
    {
      "bufferView": 1,
      "byteOffset": 633288,
      "componentType": 5126,
      "count": 1587,
      "max": [
        0.8750002384185791,
        0.7101157307624817
      ],
      "min": [
        0.39333492517471313,
        0.5398844480514526
      ],
      "type": "VEC2"
    },
    {
      "bufferView": 0,
      "byteOffset": 1346352,
      "componentType": 5125,
      "count": 6588,
      "type": "SCALAR"
    },
    {
      "bufferView": 2,
      "byteOffset": 1937952,
      "componentType": 5126,
      "count": 947,
      "max": [
        0.019492635503411293,
        1.539567470550537,
        1.0000011920928955
      ],
      "min": [
        -0.019492583349347115,
        -0.019492583349347115,
        -1.0000003576278687
      ],
      "type": "VEC3"
    },
    {
      "bufferView": 2,
      "byteOffset": 1949316,
      "componentType": 5126,
      "count": 947,
      "max": [
        1.0,
        1.0,
        1.0
      ],
      "min": [
        -1.0,
        -1.0,
        -1.0
      ],
      "type": "VEC3"
    },
    {
      "bufferView": 1,
      "byteOffset": 645984,
      "componentType": 5126,
      "count": 947,
      "max": [
        1.0000001192092896,
        1.0000001192092896
      ],
      "min": [
        0.0,
        0.01608964242041111
      ],
      "type": "VEC2"
    },
    {
      "bufferView": 0,
      "byteOffset": 1372704,
      "componentType": 5125,
      "count": 4224,
      "type": "SCALAR"
    },
    {
      "bufferView": 2,
      "byteOffset": 1960680,
      "componentType": 5126,
      "count": 929,
      "max": [
        0.029238730669021606,
        -0.03904543071985245,
        0.19117335975170135
      ],
      "min": [
        -0.02923896349966526,
        -0.09752333164215088,
        -3.661989450454712
      ],
      "type": "VEC3"
    },
    {
      "bufferView": 2,
      "byteOffset": 1971828,
      "componentType": 5126,
      "count": 929,
      "max": [
        1.0,
        1.0,
        1.0
      ],
      "min": [
        -1.0,
        -1.0,
        -1.0
      ],
      "type": "VEC3"
    },
    {
      "bufferView": 1,
      "byteOffset": 653560,
      "componentType": 5126,
      "count": 929,
      "max": [
        1.0000001192092896,
        1.0000001192092896
      ],
      "min": [
        0.0,
        0.01608964242041111
      ],
      "type": "VEC2"
    },
    {
      "bufferView": 0,
      "byteOffset": 1389600,
      "componentType": 5125,
      "count": 4224,
      "type": "SCALAR"
    },
    {
      "bufferView": 2,
      "byteOffset": 1982976,
      "componentType": 5126,
      "count": 389,
      "max": [
        0.2817952334880829,
        3.968299388885498,
        0.2296997308731079
      ],
      "min": [
        -0.372600257396698,
        -0.11513800919055939,
        -0.25784343481063843
      ],
      "type": "VEC3"
    },
    {
      "bufferView": 2,
      "byteOffset": 1987644,
      "componentType": 5126,
      "count": 389,
      "max": [
        1.0,
        0.9895268082618713,
        0.9277315139770508
      ],
      "min": [
        -0.9996668100357056,
        -0.9895268082618713,
        -0.8857572674751282
      ],
      "type": "VEC3"
    },
    {
      "bufferView": 1,
      "byteOffset": 660992,
      "componentType": 5126,
      "count": 389,
      "max": [
        0.8742550611495972,
        0.9992550611495972
      ],
      "min": [
        0.12574496865272522,
        0.2507449686527252
      ],
      "type": "VEC2"
    },
    {
      "bufferView": 0,
      "byteOffset": 1406496,
      "componentType": 5125,
      "count": 1380,
      "type": "SCALAR"
    },
    {
      "bufferView": 2,
      "byteOffset": 1992312,
      "componentType": 5126,
      "count": 204,
      "max": [
        0.2817952334880829,
        3.984377861022949,
        0.19559800624847412
      ],
      "min": [
        -0.372600257396698,
        -0.1312161237001419,
        -0.20871159434318542
      ],
      "type": "VEC3"
    },
    {
      "bufferView": 2,
      "byteOffset": 1994760,
      "componentType": 5126,
      "count": 204,
      "max": [
        1.0,
        0.9906441569328308,
        0.6244910359382629
      ],
      "min": [
        -0.9996668100357056,
        -0.9906454682350159,
        -0.07693830132484436
      ],
      "type": "VEC3"
    },
    {
      "bufferView": 1,
      "byteOffset": 664104,
      "componentType": 5126,
      "count": 204,
      "max": [
        0.8742550611495972,
        0.9992550611495972
      ],
      "min": [
        0.3753724992275238,
        0.5406212210655212
      ],
      "type": "VEC2"
    },
    {
      "bufferView": 0,
      "byteOffset": 1412016,
      "componentType": 5125,
      "count": 708,
      "type": "SCALAR"
    },
    {
      "bufferView": 2,
      "byteOffset": 1997208,
      "componentType": 5126,
      "count": 9600,
      "max": [
        0.4571848511695862,
        5.786752700805664,
        0.06849296391010284
      ],
      "min": [
        -0.08083626627922058,
        -0.18208546936511993,
        -0.08938539773225784
      ],
      "type": "VEC3"
    },
    {
      "bufferView": 2,
      "byteOffset": 2112408,
      "componentType": 5126,
      "count": 9600,
      "max": [
        0.9999575614929199,
        0.9975377917289734,
        0.999987006187439
      ],
      "min": [
        -0.9999741315841675,
        -0.9900403022766113,
        -0.9999783039093018
      ],
      "type": "VEC3"
    },
    {
      "bufferView": 1,
      "byteOffset": 665736,
      "componentType": 5126,
      "count": 9600,
      "max": [
        0.8750002384185791,
        1.0000001192092896
      ],
      "min": [
        0.1249999925494194,
        0.0
      ],
      "type": "VEC2"
    },
    {
      "bufferView": 0,
      "byteOffset": 1414848,
      "componentType": 5125,
      "count": 38976,
      "type": "SCALAR"
    },
    {
      "bufferView": 2,
      "byteOffset": 2227608,
      "componentType": 5126,
      "count": 1499,
      "max": [
        1.2976826429367065,
        0.7352933883666992,
        0.4728787839412689
      ],
      "min": [
        -1.9692426919937134,
        -0.31006333231925964,
        -0.30049559473991394
      ],
      "type": "VEC3"
    },
    {
      "bufferView": 2,
      "byteOffset": 2245596,
      "componentType": 5126,
      "count": 1499,
      "max": [
        0.9991332292556763,
        0.9863479137420654,
        0.9999933242797852
      ],
      "min": [
        -0.999049961566925,
        -0.9863479137420654,
        -0.9998793601989746
      ],
      "type": "VEC3"
    },
    {
      "bufferView": 1,
      "byteOffset": 742536,
      "componentType": 5126,
      "count": 1499,
      "max": [
        0.37500008940696716,
        0.7109376192092896
      ],
      "min": [
        0.22972223162651062,
        0.6248375177383423
      ],
      "type": "VEC2"
    },
    {
      "bufferView": 0,
      "byteOffset": 1570752,
      "componentType": 5125,
      "count": 6156,
      "type": "SCALAR"
    },
    {
      "bufferView": 2,
      "byteOffset": 2263584,
      "componentType": 5126,
      "count": 636,
      "max": [
        0.466571182012558,
        0.07938982546329498,
        0.1000000610947609
      ],
      "min": [
        0.1896899938583374,
        -0.07938983291387558,
        -0.5191544890403748
      ],
      "type": "VEC3"
    },
    {
      "bufferView": 2,
      "byteOffset": 2271216,
      "componentType": 5126,
      "count": 636,
      "max": [
        0.9996737241744995,
        0.9999996423721313,
        1.0
      ],
      "min": [
        -0.9997004270553589,
        -0.9999996423721313,
        -1.0
      ],
      "type": "VEC3"
    },
    {
      "bufferView": 1,
      "byteOffset": 754528,
      "componentType": 5126,
      "count": 636,
      "max": [
        0.8715419769287109,
        1.0000001192092896
      ],
      "min": [
        0.1292446255683899,
        0.0
      ],
      "type": "VEC2"
    },
    {
      "bufferView": 0,
      "byteOffset": 1595376,
      "componentType": 5125,
      "count": 2448,
      "type": "SCALAR"
    },
    {
      "bufferView": 2,
      "byteOffset": 2278848,
      "componentType": 5126,
      "count": 1549,
      "max": [
        0.36584171652793884,
        0.12000001966953278,
        -0.15900346636772156
      ],
      "min": [
        0.1709163635969162,
        -0.12000001966953278,
        -0.35392889380455017
      ],
      "type": "VEC3"
    },
    {
      "bufferView": 2,
      "byteOffset": 2297436,
      "componentType": 5126,
      "count": 1549,
      "max": [
        1.0,
        1.0,
        1.0
      ],
      "min": [
        -1.0,
        -1.0,
        -1.0
      ],
      "type": "VEC3"
    },
    {
      "bufferView": 1,
      "byteOffset": 759616,
      "componentType": 5126,
      "count": 1549,
      "max": [
        1.0000001192092896,
        1.0000001192092896
      ],
      "min": [
        0.0,
        0.016089655458927155
      ],
      "type": "VEC2"
    },
    {
      "bufferView": 0,
      "byteOffset": 1605168,
      "componentType": 5125,
      "count": 6912,
      "type": "SCALAR"
    },
    {
      "bufferView": 2,
      "byteOffset": 2316024,
      "componentType": 5126,
      "count": 586,
      "max": [
        0.3424895405769348,
        0.11980414390563965,
        -0.18235565721988678
      ],
      "min": [
        0.194268599152565,
        -0.11980414390563965,
        -0.33057665824890137
      ],
      "type": "VEC3"
    },
    {
      "bufferView": 2,
      "byteOffset": 2323056,
      "componentType": 5126,
      "count": 586,
      "max": [
        0.6976442933082581,
        1.0,
        0.6976442933082581
      ],
      "min": [
        -0.6976442933082581,
        -1.0,
        -0.6976442933082581
      ],
      "type": "VEC3"
    },
    {
      "bufferView": 1,
      "byteOffset": 772008,
      "componentType": 5126,
      "count": 586,
      "max": [
        0.4278651177883148,
        0.42786502838134766
      ],
      "min": [
        0.07213493436574936,
        0.07213493436574936
      ],
      "type": "VEC2"
    },
    {
      "bufferView": 0,
      "byteOffset": 1632816,
      "componentType": 5125,
      "count": 2496,
      "type": "SCALAR"
    },
    {
      "bufferView": 2,
      "byteOffset": 2330088,
      "componentType": 5126,
      "count": 2674,
      "max": [
        4.68253755569458,
        8.593932151794434,
        0.08000002801418304
      ],
      "min": [
        -0.5145004987716675,
        -5.507258415222168,
        -0.5396662354469299
      ],
      "type": "VEC3"
    },
    {
      "bufferView": 2,
      "byteOffset": 2362176,
      "componentType": 5126,
      "count": 2674,
      "max": [
        0.9991068840026855,
        0.9998576641082764,
        0.9999926090240479
      ],
      "min": [
        -0.9691026210784912,
        -0.9994529485702515,
        -0.9998453855514526
      ],
      "type": "VEC3"
    },
    {
      "bufferView": 1,
      "byteOffset": 776696,
      "componentType": 5126,
      "count": 2674,
      "max": [
        0.8750001192092896,
        1.0000001192092896
      ],
      "min": [
        0.1250000149011612,
        0.0
      ],
      "type": "VEC2"
    },
    {
      "bufferView": 0,
      "byteOffset": 1642800,
      "componentType": 5125,
      "count": 10968,
      "type": "SCALAR"
    },
    {
      "bufferView": 2,
      "byteOffset": 2394264,
      "componentType": 5126,
      "count": 374,
      "max": [
        4.510190963745117,
        8.179485321044922,
        -0.07858804613351822
      ],
      "min": [
        1.8039257526397705,
        -5.060389518737793,
        -0.5463765263557434
      ],
      "type": "VEC3"
    },
    {
      "bufferView": 2,
      "byteOffset": 2398752,
      "componentType": 5126,
      "count": 374,
      "max": [
        0.9940744638442993,
        0.4354843497276306,
        0.9919544458389282
      ],
      "min": [
        -0.16831491887569427,
        -0.6435051560401917,
        -0.995383620262146
      ],
      "type": "VEC3"
    },
    {
      "bufferView": 1,
      "byteOffset": 798088,
      "componentType": 5126,
      "count": 374,
      "max": [
        0.6305227875709534,
        0.7688199281692505
      ],
      "min": [
        0.3487405776977539,
        0.6728845238685608
      ],
      "type": "VEC2"
    },
    {
      "bufferView": 0,
      "byteOffset": 1686672,
      "componentType": 5125,
      "count": 1536,
      "type": "SCALAR"
    },
    {
      "bufferView": 2,
      "byteOffset": 2403240,
      "componentType": 5126,
      "count": 22836,
      "max": [
        0.2148699164390564,
        0.3405193090438843,
        0.4339994192123413
      ],
      "min": [
        -0.27479642629623413,
        -1.0462335348129272,
        -3.5990655422210693
      ],
      "type": "VEC3"
    },
    {
      "bufferView": 2,
      "byteOffset": 2677272,
      "componentType": 5126,
      "count": 22836,
      "max": [
        0.9992390871047974,
        0.9987752437591553,
        1.0
      ],
      "min": [
        -0.9969192743301392,
        -0.9998016357421875,
        -1.0
      ],
      "type": "VEC3"
    },
    {
      "bufferView": 1,
      "byteOffset": 801080,
      "componentType": 5126,
      "count": 22836,
      "max": [
        1.0000001192092896,
        1.000000238418579
      ],
      "min": [
        -5.605096521321684e-05,
        0.01608964242041111
      ],
      "type": "VEC2"
    },
    {
      "bufferView": 0,
      "byteOffset": 1692816,
      "componentType": 5125,
      "count": 95160,
      "type": "SCALAR"
    },
    {
      "bufferView": 2,
      "byteOffset": 2951304,
      "componentType": 5126,
      "count": 10720,
      "max": [
        0.214869886636734,
        0.3405193090438843,
        0.41475874185562134
      ],
      "min": [
        -0.27479636669158936,
        -1.034661889076233,
        -3.579824924468994
      ],
      "type": "VEC3"
    },
    {
      "bufferView": 2,
      "byteOffset": 3079944,
      "componentType": 5126,
      "count": 10720,
      "max": [
        0.9990271925926208,
        0.9998008012771606,
        0.9999675750732422
      ],
      "min": [
        -0.9969192743301392,
        -0.9969192743301392,
        -0.9999675750732422
      ],
      "type": "VEC3"
    },
    {
      "bufferView": 1,
      "byteOffset": 983768,
      "componentType": 5126,
      "count": 10720,
      "max": [
        1.0000001192092896,
        1.000000238418579
      ],
      "min": [
        -3.444205684544066e-11,
        0.12373631447553635
      ],
      "type": "VEC2"
    },
    {
      "bufferView": 0,
      "byteOffset": 2073456,
      "componentType": 5125,
      "count": 44472,
      "type": "SCALAR"
    },
    {
      "bufferView": 2,
      "byteOffset": 3208584,
      "componentType": 5126,
      "count": 28328,
      "max": [
        4.222696304321289,
        0.6328636407852173,
        4.358905792236328
      ],
      "min": [
        -1.355276107788086,
        -0.14355258643627167,
        -1.9924315214157104
      ],
      "type": "VEC3"
    },
    {
      "bufferView": 2,
      "byteOffset": 3548520,
      "componentType": 5126,
      "count": 28328,
      "max": [
        0.9853691458702087,
        0.999983549118042,
        0.9997056722640991
      ],
      "min": [
        -0.9998433589935303,
        -0.999983549118042,
        -0.9999284744262695
      ],
      "type": "VEC3"
    },
    {
      "bufferView": 1,
      "byteOffset": 1069528,
      "componentType": 5126,
      "count": 28328,
      "max": [
        0.9932015538215637,
        0.9616814255714417
      ],
      "min": [
        0.016237303614616394,
        0.12132148444652557
      ],
      "type": "VEC2"
    },
    {
      "bufferView": 1,
      "byteOffset": 1296152,
      "componentType": 5126,
      "count": 28328,
      "max": [
        4.37385892868042,
        1.2589889764785767
      ],
      "min": [
        0.0,
        -0.46187376976013184
      ],
      "type": "VEC2"
    },
    {
      "bufferView": 0,
      "byteOffset": 2251344,
      "componentType": 5125,
      "count": 113808,
      "type": "SCALAR"
    },
    {
      "bufferView": 2,
      "byteOffset": 3888456,
      "componentType": 5126,
      "count": 1380,
      "max": [
        3.484161138534546,
        0.602421760559082,
        3.88952898979187
      ],
      "min": [
        -0.5186722278594971,
        -0.1131107434630394,
        -1.5836206674575806
      ],
      "type": "VEC3"
    },
    {
      "bufferView": 2,
      "byteOffset": 3905016,
      "componentType": 5126,
      "count": 1380,
      "max": [
        0.9799596071243286,
        0.9945803880691528,
        0.7360939979553223
      ],
      "min": [
        -0.3623834252357483,
        -0.9945803880691528,
        -0.9989902377128601
      ],
      "type": "VEC3"
    },
    {
      "bufferView": 1,
      "byteOffset": 1522776,
      "componentType": 5126,
      "count": 1380,
      "max": [
        0.7363686561584473,
        0.9526639580726624
      ],
      "min": [
        0.3466692864894867,
        0.06934879720211029
      ],
      "type": "VEC2"
    },
    {
      "bufferView": 1,
      "byteOffset": 1533816,
      "componentType": 5126,
      "count": 1380,
      "max": [
        0.0,
        0.0
      ],
      "min": [
        0.0,
        0.0
      ],
      "type": "VEC2"
    },
    {
      "bufferView": 0,
      "byteOffset": 2706576,
      "componentType": 5125,
      "count": 4944,
      "type": "SCALAR"
    },
    {
      "bufferView": 2,
      "byteOffset": 3921576,
      "componentType": 5126,
      "count": 1508,
      "max": [
        0.2156020700931549,
        0.5347505807876587,
        1.927921175956726
      ],
      "min": [
        -0.6539888381958008,
        -0.04543953016400337,
        -0.19513806700706482
      ],
      "type": "VEC3"
    },
    {
      "bufferView": 2,
      "byteOffset": 3939672,
      "componentType": 5126,
      "count": 1508,
      "max": [
        0.9601469039916992,
        0.9956611394882202,
        0.7792762517929077
      ],
      "min": [
        -0.04879949241876602,
        -0.9956611394882202,
        -0.9942351579666138
      ],
      "type": "VEC3"
    },
    {
      "bufferView": 1,
      "byteOffset": 1544856,
      "componentType": 5126,
      "count": 1508,
      "max": [
        0.9539509415626526,
        0.9082229137420654
      ],
      "min": [
        0.029745973646640778,
        0.07424784451723099
      ],
      "type": "VEC2"
    },
    {
      "bufferView": 1,
      "byteOffset": 1556920,
      "componentType": 5126,
      "count": 1508,
      "max": [
        0.0,
        0.0
      ],
      "min": [
        0.0,
        0.0
      ],
      "type": "VEC2"
    },
    {
      "bufferView": 0,
      "byteOffset": 2726352,
      "componentType": 5125,
      "count": 4512,
      "type": "SCALAR"
    },
    {
      "bufferView": 2,
      "byteOffset": 3957768,
      "componentType": 5126,
      "count": 2552,
      "max": [
        -0.13544023036956787,
        0.534547746181488,
        2.175615072250366
      ],
      "min": [
        -0.5142810940742493,
        -0.045236725360155106,
        -0.2468719631433487
      ],
      "type": "VEC3"
    },
    {
      "bufferView": 2,
      "byteOffset": 3988392,
      "componentType": 5126,
      "count": 2552,
      "max": [
        0.793204128742218,
        0.9999667406082153,
        0.995787501335144
      ],
      "min": [
        -0.9844619631767273,
        -0.9999665021896362,
        -0.9820836782455444
      ],
      "type": "VEC3"
    },
    {
      "bufferView": 1,
      "byteOffset": 1568984,
      "componentType": 5126,
      "count": 2552,
      "max": [
        0.915789008140564,
        0.9605644345283508
      ],
      "min": [
        0.0829533115029335,
        0.03899755701422691
      ],
      "type": "VEC2"
    },
    {
      "bufferView": 1,
      "byteOffset": 1589400,
      "componentType": 5126,
      "count": 2552,
      "max": [
        0.0,
        0.0
      ],
      "min": [
        0.0,
        0.0
      ],
      "type": "VEC2"
    },
    {
      "bufferView": 0,
      "byteOffset": 2744400,
      "componentType": 5125,
      "count": 8640,
      "type": "SCALAR"
    }
  ],
  "asset": {
    "extras": {
      "author": "DanielBeltranSantiago (https://sketchfab.com/DanielBeltranSantiago)",
      "license": "CC-BY-4.0 (http://creativecommons.org/licenses/by/4.0/)",
      "source": "https://sketchfab.com/3d-models/arwing-assault-bf6717fb6d654382a54760164df9844d",
      "title": "Arwing (Assault)"
    },
    "generator": "Sketchfab-12.68.0",
    "version": "2.0"
  },
  "bufferViews": [
    {
      "buffer": 0,
      "byteLength": 2778960,
      "name": "floatBufferViews",
      "target": 34963
    },
    {
      "buffer": 0,
      "byteLength": 1609816,
      "byteOffset": 2778960,
      "byteStride": 8,
      "name": "floatBufferViews",
      "target": 34962
    },
    {
      "buffer": 0,
      "byteLength": 4019016,
      "byteOffset": 4388776,
      "byteStride": 12,
      "name": "floatBufferViews",
      "target": 34962
    }
  ],
  "buffers": [
    {
      "byteLength": 8407792,
      "uri": "scene.bin"
    }
  ],
  "images": [
    {
      "uri": "textures/Material.005_metallicRoughness.png"
    },
    {
      "uri": "textures/Material.008_metallicRoughness.png"
    },
    {
      "uri": "textures/Material.004_metallicRoughness.png"
    },
    {
      "uri": "textures/Material.001_baseColor.jpeg"
    }
  ],
  "materials": [
    {
      "doubleSided": true,
      "name": "Material.005",
      "pbrMetallicRoughness": {
        "baseColorFactor": [
          0.25415209433082675,
          0.24228112246555486,
          0.21586050011389923,
          1.0
        ],
        "metallicRoughnessTexture": {
          "index": 0
        },
        "roughnessFactor": 0.5
      }
    },
    {
      "doubleSided": true,
      "name": "Material.006",
      "pbrMetallicRoughness": {
        "baseColorFactor": [
          0.01520851442291271,
          0.013702083047289686,
          0.01161224517974388,
          1.0
        ],
        "metallicRoughnessTexture": {
          "index": 0
        },
        "roughnessFactor": 0.5
      }
    },
    {
      "doubleSided": true,
      "emissiveFactor": [
        0.04024717018496288,
        0.0,
        1.0
      ],
      "name": "Material.012",
      "pbrMetallicRoughness": {
        "baseColorFactor": [
          0.8,
          0.8,
          0.8,
          1.0
        ],
        "metallicFactor": 0.0,
        "roughnessFactor": 0.4
      }
    },
    {
      "doubleSided": true,
      "name": "Material.007",
      "pbrMetallicRoughness": {
        "metallicFactor": 0.75,
        "roughnessFactor": 0.0
      }
    },
    {
      "doubleSided": true,
      "name": "Material.008",
      "pbrMetallicRoughness": {
        "baseColorFactor": [
          0.25415209433082675,
          0.24228112246555486,
          0.21586050011389923,
          1.0
        ],
        "metallicRoughnessTexture": {
          "index": 1
        },
        "roughnessFactor": 0.5
      }
    },
    {
      "doubleSided": true,
      "name": "Material.009",
      "pbrMetallicRoughness": {
        "baseColorFactor": [
          0.05126945837404319,
          0.07227185068231734,
          0.238397573812271,
          1.0
        ],
        "metallicRoughnessTexture": {
          "index": 0
        },
        "roughnessFactor": 0.5
      }
    },
    {
      "doubleSided": true,
      "emissiveFactor": [
        1.0,
        1.0,
        0.0
      ],
      "name": "Material.010",
      "pbrMetallicRoughness": {
        "metallicFactor": 0.75,
        "roughnessFactor": 0.0
      }
    },
    {
      "doubleSided": true,
      "name": "Material.002",
      "pbrMetallicRoughness": {
        "baseColorFactor": [
          0.1589608350608804,
          0.238397573812271,
          0.5583403896342679,
          1.0
        ],
        "metallicRoughnessTexture": {
          "index": 0
        },
        "roughnessFactor": 0.5
      }
    },
    {
      "doubleSided": true,
      "emissiveFactor": [
        0.0,
        0.018211619012930187,
        1.0
      ],
      "name": "Material.011",
      "pbrMetallicRoughness": {
        "baseColorFactor": [
          0.8,
          0.8,
          0.8,
          1.0
        ],
        "metallicFactor": 0.75,
        "roughnessFactor": 0.0
      }
    },
    {
      "doubleSided": true,
      "name": "Material.004",
      "pbrMetallicRoughness": {
        "baseColorFactor": [
          0.3564001441459435,
          0.5457244613701866,
          0.3813260114325301,
          1.0
        ],
        "metallicRoughnessTexture": {
          "index": 2
        },
        "roughnessFactor": 0.5
      }
    },
    {
      "doubleSided": true,
      "name": "Material",
      "pbrMetallicRoughness": {
        "baseColorFactor": [
          0.5088813208549338,
          0.5271151257058131,
          0.564711505704929,
          1.0
        ],
        "metallicRoughnessTexture": {
          "index": 0
        },
        "roughnessFactor": 0.5
      }
    },
    {
      "doubleSided": true,
      "name": "Material.001",
      "pbrMetallicRoughness": {
        "baseColorTexture": {
          "index": 3
        },
        "metallicFactor": 0.0,
        "roughnessFactor": 0.0
      }
    }
  ],
  "meshes": [
    {
      "name": "Body_Material.005_0",
      "primitives": [
        {
          "attributes": {
            "NORMAL": 1,
            "POSITION": 0,
            "TEXCOORD_0": 2
          },
          "indices": 3,
          "material": 0,
          "mode": 4
        }
      ]
    },
    {
      "name": "Body.01_Material.006_0",
      "primitives": [
        {
          "attributes": {
            "NORMAL": 5,
            "POSITION": 4,
            "TEXCOORD_0": 6
          },
          "indices": 7,
          "material": 1,
          "mode": 4
        }
      ]
    },
    {
      "name": "Body.02_Material.005_0",
      "primitives": [
        {
          "attributes": {
            "NORMAL": 9,
            "POSITION": 8,
            "TEXCOORD_0": 10
          },
          "indices": 11,
          "material": 0,
          "mode": 4
        }
      ]
    },
    {
      "name": "Body.02_Material.006_0",
      "primitives": [
        {
          "attributes": {
            "NORMAL": 13,
            "POSITION": 12,
            "TEXCOORD_0": 14
          },
          "indices": 15,
          "material": 1,
          "mode": 4
        }
      ]
    },
    {
      "name": "Engine_Material.006_0",
      "primitives": [
        {
          "attributes": {
            "NORMAL": 17,
            "POSITION": 16,
            "TEXCOORD_0": 18
          },
          "indices": 19,
          "material": 1,
          "mode": 4
        }
      ]
    },
    {
      "name": "Engine_Material.012_0",
      "primitives": [
        {
          "attributes": {
            "NORMAL": 21,
            "POSITION": 20,
            "TEXCOORD_0": 22
          },
          "indices": 23,
          "material": 2,
          "mode": 4
        }
      ]
    },
    {
      "name": "Cockpit_Material.005_0",
      "primitives": [
        {
          "attributes": {
            "NORMAL": 25,
            "POSITION": 24,
            "TEXCOORD_0": 26
          },
          "indices": 27,
          "material": 0,
          "mode": 4
        }
      ]
    },
    {
      "name": "Cockpit_Material.007_0",
      "primitives": [
        {
          "attributes": {
            "NORMAL": 29,
            "POSITION": 28,
            "TEXCOORD_0": 30
          },
          "indices": 31,
          "material": 3,
          "mode": 4
        }
      ]
    },
    {
      "name": "Cockpit_Material.006_0",
      "primitives": [
        {
          "attributes": {
            "NORMAL": 33,
            "POSITION": 32,
            "TEXCOORD_0": 34
          },
          "indices": 35,
          "material": 1,
          "mode": 4
        }
      ]
    },
    {
      "name": "Body.03_Material.005_0",
      "primitives": [
        {
          "attributes": {
            "NORMAL": 37,
            "POSITION": 36,
            "TEXCOORD_0": 38
          },
          "indices": 39,
          "material": 0,
          "mode": 4
        }
      ]
    },
    {
      "name": "Body.03_Material.006_0",
      "primitives": [
        {
          "attributes": {
            "NORMAL": 41,
            "POSITION": 40,
            "TEXCOORD_0": 42
          },
          "indices": 43,
          "material": 1,
          "mode": 4
        }
      ]
    },
    {
      "name": "Body.03_Material.008_0",
      "primitives": [
        {
          "attributes": {
            "NORMAL": 45,
            "POSITION": 44,
            "TEXCOORD_0": 46
          },
          "indices": 47,
          "material": 4,
          "mode": 4
        }
      ]
    },
    {
      "name": "Details_Material.009_0",
      "primitives": [
        {
          "attributes": {
            "NORMAL": 49,
            "POSITION": 48,
            "TEXCOORD_0": 50
          },
          "indices": 51,
          "material": 5,
          "mode": 4
        }
      ]
    },
    {
      "name": "Details.01_Material.006_0",
      "primitives": [
        {
          "attributes": {
            "NORMAL": 53,
            "POSITION": 52,
            "TEXCOORD_0": 54
          },
          "indices": 55,
          "material": 1,
          "mode": 4
        }
      ]
    },
    {
      "name": "Details.03_Material.006_0",
      "primitives": [
        {
          "attributes": {
            "NORMAL": 57,
            "POSITION": 56,
            "TEXCOORD_0": 58
          },
          "indices": 59,
          "material": 1,
          "mode": 4
        }
      ]
    },
    {
      "name": "Laser_Cannon_Base_Material.006_0",
      "primitives": [
        {
          "attributes": {
            "NORMAL": 61,
            "POSITION": 60,
            "TEXCOORD_0": 62
          },
          "indices": 63,
          "material": 1,
          "mode": 4
        }
      ]
    },
    {
      "name": "Laser_Cannon_Base_Material.005_0",
      "primitives": [
        {
          "attributes": {
            "NORMAL": 65,
            "POSITION": 64,
            "TEXCOORD_0": 66
          },
          "indices": 67,
          "material": 0,
          "mode": 4
        }
      ]
    },
    {
      "name": "Laser_Cannon_Base_Material.010_0",
      "primitives": [
        {
          "attributes": {
            "NORMAL": 69,
            "POSITION": 68,
            "TEXCOORD_0": 70
          },
          "indices": 71,
          "material": 6,
          "mode": 4
        }
      ]
    },
    {
      "name": "Laser_Cannons_Material.006_0",
      "primitives": [
        {
          "attributes": {
            "NORMAL": 73,
            "POSITION": 72,
            "TEXCOORD_0": 74
          },
          "indices": 75,
          "material": 1,
          "mode": 4
        }
      ]
    },
    {
      "name": "Laser_Cannon_Base.01_Material.002_0",
      "primitives": [
        {
          "attributes": {
            "NORMAL": 77,
            "POSITION": 76,
            "TEXCOORD_0": 78
          },
          "indices": 79,
          "material": 7,
          "mode": 4
        }
      ]
    },
    {
      "name": "Laser_Cannon_Base.01_Material.006_0",
      "primitives": [
        {
          "attributes": {
            "NORMAL": 81,
            "POSITION": 80,
            "TEXCOORD_0": 82
          },
          "indices": 83,
          "material": 1,
          "mode": 4
        }
      ]
    },
    {
      "name": "Details.04_Material.006_0",
      "primitives": [
        {
          "attributes": {
            "NORMAL": 85,
            "POSITION": 84,
            "TEXCOORD_0": 86
          },
          "indices": 87,
          "material": 1,
          "mode": 4
        }
      ]
    },
    {
      "name": "Details.05_Material.006_0",
      "primitives": [
        {
          "attributes": {
            "NORMAL": 89,
            "POSITION": 88,
            "TEXCOORD_0": 90
          },
          "indices": 91,
          "material": 1,
          "mode": 4
        }
      ]
    },
    {
      "name": "Wings_Base_Material.005_0",
      "primitives": [
        {
          "attributes": {
            "NORMAL": 93,
            "POSITION": 92,
            "TEXCOORD_0": 94
          },
          "indices": 95,
          "material": 0,
          "mode": 4
        }
      ]
    },
    {
      "name": "Wings_Base_Material.006_0",
      "primitives": [
        {
          "attributes": {
            "NORMAL": 97,
            "POSITION": 96,
            "TEXCOORD_0": 98
          },
          "indices": 99,
          "material": 1,
          "mode": 4
        }
      ]
    },
    {
      "name": "Wings.01_Material.006_0",
      "primitives": [
        {
          "attributes": {
            "NORMAL": 101,
            "POSITION": 100,
            "TEXCOORD_0": 102
          },
          "indices": 103,
          "material": 1,
          "mode": 4
        }
      ]
    },
    {
      "name": "Body.04_Material.005_0",
      "primitives": [
        {
          "attributes": {
            "NORMAL": 105,
            "POSITION": 104,
            "TEXCOORD_0": 106
          },
          "indices": 107,
          "material": 0,
          "mode": 4
        }
      ]
    },
    {
      "name": "Details.02_Material.005_0",
      "primitives": [
        {
          "attributes": {
            "NORMAL": 109,
            "POSITION": 108,
            "TEXCOORD_0": 110
          },
          "indices": 111,
          "material": 0,
          "mode": 4
        }
      ]
    },
    {
      "name": "Details.02_Material.006_0",
      "primitives": [
        {
          "attributes": {
            "NORMAL": 113,
            "POSITION": 112,
            "TEXCOORD_0": 114
          },
          "indices": 115,
          "material": 1,
          "mode": 4
        }
      ]
    },
    {
      "name": "Details.02_Material.011_0",
      "primitives": [
        {
          "attributes": {
            "NORMAL": 117,
            "POSITION": 116,
            "TEXCOORD_0": 118
          },
          "indices": 119,
          "material": 8,
          "mode": 4
        }
      ]
    },
    {
      "name": "Wings_Material.005_0",
      "primitives": [
        {
          "attributes": {
            "NORMAL": 121,
            "POSITION": 120,
            "TEXCOORD_0": 122
          },
          "indices": 123,
          "material": 0,
          "mode": 4
        }
      ]
    },
    {
      "name": "Wings_Material.006_0",
      "primitives": [
        {
          "attributes": {
            "NORMAL": 125,
            "POSITION": 124,
            "TEXCOORD_0": 126
          },
          "indices": 127,
          "material": 1,
          "mode": 4
        }
      ]
    },
    {
      "name": "G-Diffuser_Systems_Base_Material.006_0",
      "primitives": [
        {
          "attributes": {
            "NORMAL": 129,
            "POSITION": 128,
            "TEXCOORD_0": 130
          },
          "indices": 131,
          "material": 1,
          "mode": 4
        }
      ]
    },
    {
      "name": "G-Diffuser_Systems_Base_Material.005_0",
      "primitives": [
        {
          "attributes": {
            "NORMAL": 133,
            "POSITION": 132,
            "TEXCOORD_0": 134
          },
          "indices": 135,
          "material": 0,
          "mode": 4
        }
      ]
    },
    {
      "name": "G-Diffuser_Systems_Material.002_0",
      "primitives": [
        {
          "attributes": {
            "NORMAL": 137,
            "POSITION": 136,
            "TEXCOORD_0": 138,
            "TEXCOORD_1": 139
          },
          "indices": 140,
          "material": 7,
          "mode": 4
        }
      ]
    },
    {
      "name": "G-Diffuser_Systems_Material.004_0",
      "primitives": [
        {
          "attributes": {
            "NORMAL": 142,
            "POSITION": 141,
            "TEXCOORD_0": 143,
            "TEXCOORD_1": 144
          },
          "indices": 145,
          "material": 9,
          "mode": 4
        }
      ]
    },
    {
      "name": "G-Diffuser_Systems_Material_0",
      "primitives": [
        {
          "attributes": {
            "NORMAL": 147,
            "POSITION": 146,
            "TEXCOORD_0": 148,
            "TEXCOORD_1": 149
          },
          "indices": 150,
          "material": 10,
          "mode": 4
        }
      ]
    },
    {
      "name": "G-Diffuser_Systems_Material.001_0",
      "primitives": [
        {
          "attributes": {
            "NORMAL": 152,
            "POSITION": 151,
            "TEXCOORD_0": 153,
            "TEXCOORD_1": 154
          },
          "indices": 155,
          "material": 11,
          "mode": 4
        }
      ]
    }
  ],
  "nodes": [
    {
      "children": [
        1
      ],
      "matrix": [
        1.0,
        0.0,
        0.0,
        0.0,
        0.0,
        2.220446049250313e-16,
        -1.0,
        0.0,
        0.0,
        1.0,
        2.220446049250313e-16,
        0.0,
        0.0,
        0.0,
        0.0,
        1.0
      ],
      "name": "Sketchfab_model"
    },
    {
      "children": [
        2
      ],
      "matrix": [
        1.0,
        0.0,
        0.0,
        0.0,
        0.0,
        0.0,
        1.0,
        0.0,
        0.0,
        -1.0,
        0.0,
        0.0,
        0.0,
        0.0,
        0.0,
        1.0
      ],
      "name": "Arwing_(Assault).fbx"
    },
    {
      "children": [
        3,
        5,
        7,
        9,
        12,
        15,
        19,
        23,
        25,
        27,
        29,
        33,
        35,
        38,
        40,
        42,
        45,
        47,
        49,
        53,
        56,
        59,
        64,
        67,
        70,
        73,
        76
      ],
      "name": "RootNode"
    },
    {
      "children": [
        4
      ],
      "matrix": [
        1.9470718903846773e-05,
        99.99999999999781,
        -7.5592801351831415e-06,
        0.0,
        99.99999999999697,
        -1.9470720036274258e-05,
        -1.5099579909783661e-05,
        0.0,
        -1.5099581381629605e-05,
        -7.559277195186156e-06,
        -99.99999999999855,
        0.0,
        39.999996185302734,
        -3300.0,
        0.0,
        1.0
      ],
      "name": "Camera"
    },
    {
      "name": "Object_4"
    },
    {
      "children": [
        6
      ],
      "matrix": [
        100.0,
        0.0,
        0.0,
        0.0,
        0.0,
        -1.629206793918314e-05,
        -99.99999999999868,
        0.0,
        0.0,
        99.99999999999868,
        -1.629206793918314e-05,
        0.0,
        0.0,
        0.0,
        0.0,
        1.0
      ],
      "name": "Body"
    },
    {
      "mesh": 0,
      "name": "Body_Material.005_0"
    },
    {
      "children": [
        8
      ],
      "matrix": [
        90.51799011230469,
        0.0,
        0.0,
        0.0,
        0.0,
        -1.4747252446279758e-05,
        -90.5179901123035,
        0.0,
        0.0,
        90.5179901123035,
        -1.4747252446279758e-05,
        0.0,
        36.028778076171875,
        0.0,
        0.0,
        1.0
      ],
      "name": "Body.01"
    },
    {
      "mesh": 1,
      "name": "Body.01_Material.006_0"
    },
    {
      "children": [
        10,
        11
      ],
      "matrix": [
        90.51799011230469,
        0.0,
        0.0,
        0.0,
        0.0,
        -1.4747252446279758e-05,
        -90.5179901123035,
        0.0,
        0.0,
        90.5179901123035,
        -1.4747252446279758e-05,
        0.0,
        36.028778076171875,
        0.0,
        0.0,
        1.0
      ],
      "name": "Body.02"
    },
    {
      "mesh": 2,
      "name": "Body.02_Material.005_0"
    },
    {
      "mesh": 3,
      "name": "Body.02_Material.006_0"
    },
    {
      "children": [
        13,
        14
      ],
      "matrix": [
        90.51799011230469,
        0.0,
        0.0,
        0.0,
        0.0,
        -1.4747252446279758e-05,
        -90.5179901123035,
        0.0,
        0.0,
        90.5179901123035,
        -1.4747252446279758e-05,
        0.0,
        36.028778076171875,
        0.0,
        0.0,
        1.0
      ],
      "name": "Engine"
    },
    {
      "mesh": 4,
      "name": "Engine_Material.006_0"
    },
    {
      "mesh": 5,
      "name": "Engine_Material.012_0"
    },
    {
      "children": [
        16,
        17,
        18
      ],
      "matrix": [
        100.0,
        0.0,
        0.0,
        0.0,
        0.0,
        -1.629206793918314e-05,
        -99.99999999999868,
        0.0,
        0.0,
        99.99999999999868,
        -1.629206793918314e-05,
        0.0,
        0.0,
        0.0,
        0.0,
        1.0
      ],
      "name": "Cockpit"
    },
    {
      "mesh": 6,
      "name": "Cockpit_Material.005_0"
    },
    {
      "mesh": 7,
      "name": "Cockpit_Material.007_0"
    },
    {
      "mesh": 8,
      "name": "Cockpit_Material.006_0"
    },
    {
      "children": [
        20,
        21,
        22
      ],
      "matrix": [
        90.51799011230469,
        0.0,
        0.0,
        0.0,
        0.0,
        -1.4747252446279758e-05,
        -90.5179901123035,
        0.0,
        0.0,
        90.5179901123035,
        -1.4747252446279758e-05,
        0.0,
        36.028778076171875,
        0.0,
        0.0,
        1.0
      ],
      "name": "Body.03"
    },
    {
      "mesh": 9,
      "name": "Body.03_Material.005_0"
    },
    {
      "mesh": 10,
      "name": "Body.03_Material.006_0"
    },
    {
      "mesh": 11,
      "name": "Body.03_Material.008_0"
    },
    {
      "children": [
        24
      ],
      "matrix": [
        90.51799011230469,
        0.0,
        0.0,
        0.0,
        0.0,
        -1.4747252446279758e-05,
        -90.5179901123035,
        0.0,
        0.0,
        90.5179901123035,
        -1.4747252446279758e-05,
        0.0,
        36.028778076171875,
        0.0,
        32.93739318847656,
        1.0
      ],
      "name": "Details"
    },
    {
      "mesh": 12,
      "name": "Details_Material.009_0"
    },
    {
      "children": [
        26
      ],
      "matrix": [
        90.51799011230469,
        0.0,
        0.0,
        0.0,
        0.0,
        -1.4747252446279758e-05,
        -90.5179901123035,
        0.0,
        0.0,
        90.5179901123035,
        -1.4747252446279758e-05,
        0.0,
        36.028778076171875,
        0.0,
        0.0,
        1.0
      ],
      "name": "Details.01"
    },
    {
      "mesh": 13,
      "name": "Details.01_Material.006_0"
    },
    {
      "children": [
        28
      ],
      "matrix": [
        100.0,
        0.0,
        0.0,
        0.0,
        0.0,
        99.9999999999999,
        4.371138828673792e-06,
        0.0,
        0.0,
        -4.371138828673792e-06,
        99.9999999999999,
        0.0,
        139.74072265625,
        89.9226303100586,
        67.07828521728516,
        1.0
      ],
      "name": "Details.03"
    },
    {
      "mesh": 14,
      "name": "Details.03_Material.006_0"
    },
    {
      "children": [
        30,
        31,
        32
      ],
      "matrix": [
        100.00001525878906,
        0.0,
        0.0,
        0.0,
        0.0,
        -34.579602741615965,
        -106.42501191697937,
        0.0,
        0.0,
        237.76410130012212,
        -77.25428469380167,
        0.0,
        139.74072265625,
        85.96172332763672,
        129.74462890625,
        1.0
      ],
      "name": "Laser_Cannon_Base"
    },
    {
      "mesh": 15,
      "name": "Laser_Cannon_Base_Material.006_0"
    },
    {
      "mesh": 16,
      "name": "Laser_Cannon_Base_Material.005_0"
    },
    {
      "mesh": 17,
      "name": "Laser_Cannon_Base_Material.010_0"
    },
    {
      "children": [
        34
      ],
      "matrix": [
        -2.8212996872056806e-05,
        -99.99999999999602,
        1.6653345369377348e-14,
        0.0,
        -1.6292067944734256e-05,
        4.5852210917018965e-12,
        -99.99999999999866,
        0.0,
        99.9999999999947,
        -2.8212996894261266e-05,
        -1.629206793918314e-05,
        0.0,
        130.2249298095703,
        88.1134033203125,
        131.60157775878906,
        1.0
      ],
      "name": "Laser_Cannons"
    },
    {
      "mesh": 18,
      "name": "Laser_Cannons_Material.006_0"
    },
    {
      "children": [
        36,
        37
      ],
      "matrix": [
        100.0,
        0.0,
        0.0,
        0.0,
        0.0,
        -1.629206793918314e-05,
        -99.99999999999868,
        0.0,
        0.0,
        99.99999999999868,
        -1.629206793918314e-05,
        0.0,
        122.72705078125,
        102.80611419677734,
        126.84043884277344,
        1.0
      ],
      "name": "Laser_Cannon_Base.01"
    },
    {
      "mesh": 19,
      "name": "Laser_Cannon_Base.01_Material.002_0"
    },
    {
      "mesh": 20,
      "name": "Laser_Cannon_Base.01_Material.006_0"
    },
    {
      "children": [
        39
      ],
      "matrix": [
        -2.5391697184851125e-05,
        -89.99999999999642,
        1.4988010832439613e-14,
        0.0,
        -1.466286115026083e-05,
        4.126698982531707e-12,
        -89.9999999999988,
        0.0,
        14.017878532408924,
        -3.954863634990056e-06,
        -2.2838022941323516e-06,
        0.0,
        139.46051025390625,
        98.14644622802734,
        68.40335845947266,
        1.0
      ],
      "name": "Details.04"
    },
    {
      "mesh": 21,
      "name": "Details.04_Material.006_0"
    },
    {
      "children": [
        41
      ],
      "matrix": [
        100.0,
        0.0,
        0.0,
        0.0,
        0.0,
        99.9999999999999,
        4.371138828673792e-06,
        0.0,
        0.0,
        -4.371138828673792e-06,
        99.9999999999999,
        0.0,
        158.31773376464844,
        120.1568374633789,
        173.54074096679688,
        1.0
      ],
      "name": "Details.05"
    },
    {
      "mesh": 22,
      "name": "Details.05_Material.006_0"
    },
    {
      "children": [
        43,
        44
      ],
      "matrix": [
        100.0,
        0.0,
        0.0,
        0.0,
        0.0,
        -1.629206793918314e-05,
        -99.99999999999868,
        0.0,
        0.0,
        99.99999999999868,
        -1.629206793918314e-05,
        0.0,
        158.3177032470703,
        113.32842254638672,
        192.65805053710938,
        1.0
      ],
      "name": "Wings_Base"
    },
    {
      "mesh": 23,
      "name": "Wings_Base_Material.005_0"
    },
    {
      "mesh": 24,
      "name": "Wings_Base_Material.006_0"
    },
    {
      "children": [
        46
      ],
      "matrix": [
        233.5503039792943,
        2.5040633394742364e-06,
        -50.85781690991013,
        0.0,
        -15.25786486355419,
        5.2503267362245806e-06,
        -70.06747818669514,
        0.0,
        3.383346728082585e-07,
        63.33243179321273,
        4.671977692733725e-06,
        0.0,
        175.91018676757813,
        115.70220947265625,
        203.86598205566406,
        1.0
      ],
      "name": "Wings.01"
    },
    {
      "mesh": 25,
      "name": "Wings.01_Material.006_0"
    },
    {
      "children": [
        48
      ],
      "matrix": [
        100.0,
        0.0,
        0.0,
        0.0,
        0.0,
        -1.629206793918314e-05,
        -99.99999999999868,
        0.0,
        0.0,
        99.99999999999868,
        -1.629206793918314e-05,
        0.0,
        86.11400604248047,
        -89.12654876708984,
        21.261499404907227,
        1.0
      ],
      "name": "Body.04"
    },
    {
      "mesh": 26,
      "name": "Body.04_Material.005_0"
    },
    {
      "children": [
        50,
        51,
        52
      ],
      "matrix": [
        100.0,
        0.0,
        0.0,
        0.0,
        0.0,
        -1.629206793918314e-05,
        -99.99999999999868,
        0.0,
        0.0,
        99.99999999999868,
        -1.629206793918314e-05,
        0.0,
        45.02989196777344,
        -56.78334045410156,
        0.0,
        1.0
      ],
      "name": "Details.02"
    },
    {
      "mesh": 27,
      "name": "Details.02_Material.005_0"
    },
    {
      "mesh": 28,
      "name": "Details.02_Material.006_0"
    },
    {
      "mesh": 29,
      "name": "Details.02_Material.011_0"
    },
    {
      "children": [
        54,
        55
      ],
      "matrix": [
        98.87710127420804,
        0.0,
        -14.94380532967282,
        0.0,
        -14.943805329672621,
        -1.6292066696197e-05,
        -98.87710127420674,
        0.0,
        -2.4346551011356077e-06,
        99.99999999999868,
        -1.6109125744456776e-05,
        0.0,
        185.8855743408203,
        115.70220947265625,
        206.6515655517578,
        1.0
      ],
      "name": "Wings"
    },
    {
      "mesh": 30,
      "name": "Wings_Material.005_0"
    },
    {
      "mesh": 31,
      "name": "Wings_Material.006_0"
    },
    {
      "children": [
        57,
        58
      ],
      "matrix": [
        100.0,
        0.0,
        0.0,
        0.0,
        0.0,
        99.9999999999999,
        4.371138828673792e-06,
        0.0,
        0.0,
        -4.371138828673792e-06,
        99.9999999999999,
        0.0,
        121.0,
        148.1119384765625,
        158.2532958984375,
        1.0
      ],
      "name": "G-Diffuser_Systems_Base"
    },
    {
      "mesh": 32,
      "name": "G-Diffuser_Systems_Base_Material.006_0"
    },
    {
      "mesh": 33,
      "name": "G-Diffuser_Systems_Base_Material.005_0"
    },
    {
      "children": [
        60,
        61,
        62,
        63
      ],
      "matrix": [
        100.0,
        0.0,
        0.0,
        0.0,
        0.0,
        -0.00014253217660896775,
        -874.8562622070197,
        0.0,
        0.0,
        99.99999999999868,
        -1.629206793918314e-05,
        0.0,
        150.1721649169922,
        14.874267578125,
        214.03842163085938,
        1.0
      ],
      "name": "G-Diffuser_Systems"
    },
    {
      "mesh": 34,
      "name": "G-Diffuser_Systems_Material.002_0"
    },
    {
      "mesh": 35,
      "name": "G-Diffuser_Systems_Material.004_0"
    },
    {
      "mesh": 36,
      "name": "G-Diffuser_Systems_Material_0"
    },
    {
      "mesh": 37,
      "name": "G-Diffuser_Systems_Material.001_0"
    },
    {
      "children": [
        65
      ],
      "matrix": [
        66.34738021204481,
        -74.8199514768512,
        6.063896130812103e-14,
        0.0,
        74.81995147685097,
        66.3473802120446,
        -7.549790126404327e-06,
        0.0,
        5.6487492689474566e-06,
        5.009088005746938e-06,
        99.99999999999972,
        0.0,
        1052.5001220703125,
        972.0667724609375,
        0.0,
        1.0
      ],
      "name": "Spot"
    },
    {
      "children": [
        66
      ],
      "matrix": [
        1.0,
        0.0,
        0.0,
        0.0,
        0.0,
        2.220446049250313e-16,
        1.0,
        0.0,
        0.0,
        -1.0,
        2.220446049250313e-16,
        0.0,
        0.0,
        0.0,
        0.0,
        1.0
      ],
      "name": "Object_65"
    },
    {
      "name": "Object_66"
    },
    {
      "children": [
        68
      ],
      "matrix": [
        66.04560509428477,
        75.08647047058335,
        2.0979797096305712e-13,
        0.0,
        -75.08647047058314,
        66.04560509428458,
        -7.549790126404327e-06,
        0.0,
        -5.668871072415942e-06,
        4.986304414802414e-06,
        99.99999999999972,
        0.0,
        -1052.5,
        972.0667724609375,
        0.0,
        1.0
      ],
      "name": "Spot.001"
    },
    {
      "children": [
        69
      ],
      "matrix": [
        1.0,
        0.0,
        0.0,
        0.0,
        0.0,
        2.220446049250313e-16,
        1.0,
        0.0,
        0.0,
        -1.0,
        2.220446049250313e-16,
        0.0,
        0.0,
        0.0,
        0.0,
        1.0
      ],
      "name": "Object_68"
    },
    {
      "name": "Object_69"
    },
    {
      "children": [
        71
      ],
      "matrix": [
        -1.4104414280957656e-05,
        86.57227742845915,
        -50.0523803714639,
        0.0,
        8.137500134841602e-06,
        50.05238037146522,
        86.57227742845915,
        0.0,
        99.99999999999868,
        8.137500134841602e-06,
        -1.4104414280957656e-05,
        0.0,
        0.0,
        972.0667724609375,
        1718.482421875,
        1.0
      ],
      "name": "Spot.002"
    },
    {
      "children": [
        72
      ],
      "matrix": [
        1.0,
        0.0,
        0.0,
        0.0,
        0.0,
        2.220446049250313e-16,
        1.0,
        0.0,
        0.0,
        -1.0,
        2.220446049250313e-16,
        0.0,
        0.0,
        0.0,
        0.0,
        1.0
      ],
      "name": "Object_71"
    },
    {
      "name": "Object_72"
    },
    {
      "children": [
        74
      ],
      "matrix": [
        -3.785517521670556e-06,
        -86.60254263015277,
        -49.999996099925426,
        0.0,
        -1.4106498624766317e-05,
        49.999996099925426,
        -86.6025426301517,
        0.0,
        99.99999999999893,
        3.7748943415572e-06,
        -1.4109345092272463e-05,
        0.0,
        0.0,
        972.0667724609375,
        -1718.47998046875,
        1.0
      ],
      "name": "Spot.003"
    },
    {
      "children": [
        75
      ],
      "matrix": [
        1.0,
        0.0,
        0.0,
        0.0,
        0.0,
        2.220446049250313e-16,
        1.0,
        0.0,
        0.0,
        -1.0,
        2.220446049250313e-16,
        0.0,
        0.0,
        0.0,
        0.0,
        1.0
      ],
      "name": "Object_74"
    },
    {
      "name": "Object_75"
    },
    {
      "children": [
        77
      ],
      "matrix": [
        85.62670901396139,
        51.6533319684063,
        -5.952276312779748e-14,
        0.0,
        51.6533319684061,
        -85.62670901396108,
        8.742277980456493e-06,
        0.0,
        4.5156778158786945e-06,
        -7.485724958262591e-06,
        -99.99999999999964,
        0.0,
        615.0,
        -1000.0,
        0.0,
        1.0
      ],
      "name": "Spot.004"
    },
    {
      "children": [
        78
      ],
      "matrix": [
        1.0,
        0.0,
        0.0,
        0.0,
        0.0,
        2.220446049250313e-16,
        1.0,
        0.0,
        0.0,
        -1.0,
        2.220446049250313e-16,
        0.0,
        0.0,
        0.0,
        0.0,
        1.0
      ],
      "name": "Object_77"
    },
    {
      "name": "Object_78"
    }
  ],
  "samplers": [
    {
      "magFilter": 9729,
      "minFilter": 9987,
      "wrapS": 10497,
      "wrapT": 10497
    }
  ],
  "scene": 0,
  "scenes": [
    {
      "name": "Sketchfab_Scene",
      "nodes": [
        0
      ]
    }
  ],
  "textures": [
    {
      "sampler": 0,
      "source": 0
    },
    {
      "sampler": 0,
      "source": 1
    },
    {
      "sampler": 0,
      "source": 2
    },
    {
      "sampler": 0,
      "source": 3
    }
  ]
}
